<?xml version="1.0" encoding="UTF-8" standalone="no"?>
<!DOCTYPE svg PUBLIC "-//W3C//DTD SVG 1.1//EN"
 "http://www.w3.org/Graphics/SVG/1.1/DTD/svg11.dtd">
<!-- Generated by graphviz version 2.43.0 (0)
 -->
<!-- Title: G Pages: 1 -->
<svg width="23730pt" height="348pt"
 viewBox="0.00 0.00 23730.43 348.00" xmlns="http://www.w3.org/2000/svg" xmlns:xlink="http://www.w3.org/1999/xlink">
<g id="graph0" class="graph" transform="scale(1 1) rotate(0) translate(4 344)">
<title>G</title>
<polygon fill="white" stroke="transparent" points="-4,4 -4,-344 23726.43,-344 23726.43,4 -4,4"/>
<!-- VarNode{&lt;org.joychou.controller.SSRF: java.lang.String DnsRebind(java.lang.String)&gt;/url} -->
<g id="node1" class="node">
<title>VarNode{&lt;org.joychou.controller.SSRF: java.lang.String DnsRebind(java.lang.String)&gt;/url}</title>
<polygon fill="gold" stroke="black" points="739.78,-310.54 739.78,-325.46 524.3,-336 219.56,-336 4.07,-325.46 4.07,-310.54 219.56,-300 524.3,-300 739.78,-310.54"/>
<polygon fill="none" stroke="black" points="743.78,-306.74 743.78,-329.26 524.39,-340 219.46,-340 0.07,-329.26 0.07,-306.74 219.46,-296 524.39,-296 743.78,-306.74"/>
<text text-anchor="middle" x="371.93" y="-314.3" font-family="Times,serif" font-size="14.00">VarNode{&lt;org.joychou.controller.SSRF: java.lang.String DnsRebind(java.lang.String)&gt;/url}</text>
</g>
<!-- VarNode{&lt;org.joychou.controller.CommandInject: java.lang.String codeInject(java.lang.String)&gt;/filepath} -->
<g id="node2" class="node">
<title>VarNode{&lt;org.joychou.controller.CommandInject: java.lang.String codeInject(java.lang.String)&gt;/filepath}</title>
<polygon fill="gold" stroke="black" points="1612.43,-310.54 1612.43,-325.46 1364.35,-336 1013.51,-336 765.42,-325.46 765.42,-310.54 1013.51,-300 1364.35,-300 1612.43,-310.54"/>
<polygon fill="none" stroke="black" points="1616.43,-306.71 1616.43,-329.29 1364.43,-340 1013.42,-340 761.42,-329.29 761.42,-306.71 1013.42,-296 1364.43,-296 1616.43,-306.71"/>
<text text-anchor="middle" x="1188.93" y="-314.3" font-family="Times,serif" font-size="14.00">VarNode{&lt;org.joychou.controller.CommandInject: java.lang.String codeInject(java.lang.String)&gt;/filepath}</text>
</g>
<!-- VarNode{&lt;org.joychou.controller.Rce: java.lang.String processBuilder(java.lang.String)&gt;/cmd} -->
<g id="node3" class="node">
<title>VarNode{&lt;org.joychou.controller.Rce: java.lang.String processBuilder(java.lang.String)&gt;/cmd}</title>
<polygon fill="gold" stroke="black" points="2401.01,-310.54 2401.01,-325.46 2177.78,-336 1862.07,-336 1638.84,-325.46 1638.84,-310.54 1862.07,-300 2177.78,-300 2401.01,-310.54"/>
<polygon fill="none" stroke="black" points="2405.01,-306.73 2405.01,-329.27 2177.87,-340 1861.98,-340 1634.84,-329.27 1634.84,-306.73 1861.98,-296 2177.87,-296 2405.01,-306.73"/>
<text text-anchor="middle" x="2019.93" y="-314.3" font-family="Times,serif" font-size="14.00">VarNode{&lt;org.joychou.controller.Rce: java.lang.String processBuilder(java.lang.String)&gt;/cmd}</text>
</g>
<!-- VarNode{&lt;org.joychou.impl.HttpServiceImpl: java.lang.String RequestHttpBanRedirects(java.lang.String,org.springframework.http.HttpHeaders)&gt;/url} -->
<g id="node4" class="node">
<title>VarNode{&lt;org.joychou.impl.HttpServiceImpl: java.lang.String RequestHttpBanRedirects(java.lang.String,org.springframework.http.HttpHeaders)&gt;/url}</title>
<polygon fill="deepskyblue" stroke="black" points="3624.77,-310.54 3624.77,-325.46 3273.98,-336 2777.88,-336 2427.08,-325.46 2427.08,-310.54 2777.88,-300 3273.98,-300 3624.77,-310.54"/>
<polygon fill="none" stroke="black" points="3628.77,-306.66 3628.77,-329.34 3274.04,-340 2777.82,-340 2423.08,-329.34 2423.08,-306.66 2777.82,-296 3274.04,-296 3628.77,-306.66"/>
<text text-anchor="middle" x="3025.93" y="-314.3" font-family="Times,serif" font-size="14.00">VarNode{&lt;org.joychou.impl.HttpServiceImpl: java.lang.String RequestHttpBanRedirects(java.lang.String,org.springframework.http.HttpHeaders)&gt;/url}</text>
</g>
<!-- VarNode{&lt;org.joychou.controller.SQLI: java.lang.String jdbc_ps_vuln(java.lang.String)&gt;/$r9} -->
<g id="node5" class="node">
<title>VarNode{&lt;org.joychou.controller.SQLI: java.lang.String jdbc_ps_vuln(java.lang.String)&gt;/$r9}</title>
<polygon fill="floralwhite" stroke="black" points="4319.93,-188 3783.93,-188 3783.93,-152 4319.93,-152 4319.93,-188"/>
<text text-anchor="middle" x="4051.93" y="-166.3" font-family="Times,serif" font-size="14.00">VarNode{&lt;org.joychou.controller.SQLI: java.lang.String jdbc_ps_vuln(java.lang.String)&gt;/$r9}</text>
</g>
<!-- VarNode{&lt;org.joychou.controller.SQLI: java.lang.String jdbc_ps_vuln(java.lang.String)&gt;/$r10} -->
<g id="node10" class="node">
<title>VarNode{&lt;org.joychou.controller.SQLI: java.lang.String jdbc_ps_vuln(java.lang.String)&gt;/$r10}</title>
<polygon fill="floralwhite" stroke="black" points="4323.43,-116 3780.43,-116 3780.43,-80 4323.43,-80 4323.43,-116"/>
<text text-anchor="middle" x="4051.93" y="-94.3" font-family="Times,serif" font-size="14.00">VarNode{&lt;org.joychou.controller.SQLI: java.lang.String jdbc_ps_vuln(java.lang.String)&gt;/$r10}</text>
</g>
<!-- VarNode{&lt;org.joychou.controller.SQLI: java.lang.String jdbc_ps_vuln(java.lang.String)&gt;/$r9}&#45;&gt;VarNode{&lt;org.joychou.controller.SQLI: java.lang.String jdbc_ps_vuln(java.lang.String)&gt;/$r10} -->
<g id="edge1" class="edge">
<title>VarNode{&lt;org.joychou.controller.SQLI: java.lang.String jdbc_ps_vuln(java.lang.String)&gt;/$r9}&#45;&gt;VarNode{&lt;org.joychou.controller.SQLI: java.lang.String jdbc_ps_vuln(java.lang.String)&gt;/$r10}</title>
<path fill="none" stroke="#00cd00" stroke-dasharray="5,2" d="M4051.93,-151.7C4051.93,-143.98 4051.93,-134.71 4051.93,-126.11"/>
<polygon fill="#00cd00" stroke="#00cd00" points="4055.43,-126.1 4051.93,-116.1 4048.43,-126.1 4055.43,-126.1"/>
</g>
<!-- VarNode{&lt;org.joychou.controller.SSRF: void openStream(java.lang.String,javax.servlet.http.HttpServletResponse)&gt;/url} -->
<g id="node6" class="node">
<title>VarNode{&lt;org.joychou.controller.SSRF: void openStream(java.lang.String,javax.servlet.http.HttpServletResponse)&gt;/url}</title>
<polygon fill="gold" stroke="black" points="5436.18,-310.54 5436.18,-325.46 5156.02,-336 4759.83,-336 4479.68,-325.46 4479.68,-310.54 4759.83,-300 5156.02,-300 5436.18,-310.54"/>
<polygon fill="none" stroke="black" points="5440.18,-306.69 5440.18,-329.31 5156.1,-340 4759.75,-340 4475.68,-329.31 4475.68,-306.69 4759.75,-296 5156.1,-296 5440.18,-306.69"/>
<text text-anchor="middle" x="4957.93" y="-314.3" font-family="Times,serif" font-size="14.00">VarNode{&lt;org.joychou.controller.SSRF: void openStream(java.lang.String,javax.servlet.http.HttpServletResponse)&gt;/url}</text>
</g>
<!-- VarNode{&lt;org.joychou.controller.CommandInject: java.lang.String codeInjectSec(java.lang.String)&gt;/filepath} -->
<g id="node7" class="node">
<title>VarNode{&lt;org.joychou.controller.CommandInject: java.lang.String codeInjectSec(java.lang.String)&gt;/filepath}</title>
<polygon fill="gold" stroke="black" points="6335.67,-310.54 6335.67,-325.46 6079.83,-336 5718.02,-336 5462.19,-325.46 5462.19,-310.54 5718.02,-300 6079.83,-300 6335.67,-310.54"/>
<polygon fill="none" stroke="black" points="6339.66,-306.71 6339.66,-329.29 6079.91,-340 5717.94,-340 5458.19,-329.29 5458.19,-306.71 5717.94,-296 6079.91,-296 6339.66,-306.71"/>
<text text-anchor="middle" x="5898.93" y="-314.3" font-family="Times,serif" font-size="14.00">VarNode{&lt;org.joychou.controller.CommandInject: java.lang.String codeInjectSec(java.lang.String)&gt;/filepath}</text>
</g>
<!-- VarNode{&lt;org.joychou.controller.Rce: void jsEngine(java.lang.String)&gt;/jsurl} -->
<g id="node8" class="node">
<title>VarNode{&lt;org.joychou.controller.Rce: void jsEngine(java.lang.String)&gt;/jsurl}</title>
<polygon fill="gold" stroke="black" points="6989.45,-310.54 6989.45,-325.46 6805.79,-336 6546.06,-336 6362.41,-325.46 6362.41,-310.54 6546.06,-300 6805.79,-300 6989.45,-310.54"/>
<polygon fill="none" stroke="black" points="6993.44,-306.77 6993.44,-329.23 6805.9,-340 6545.95,-340 6358.41,-329.23 6358.41,-306.77 6545.95,-296 6805.9,-296 6993.44,-306.77"/>
<text text-anchor="middle" x="6675.93" y="-314.3" font-family="Times,serif" font-size="14.00">VarNode{&lt;org.joychou.controller.Rce: void jsEngine(java.lang.String)&gt;/jsurl}</text>
</g>
<!-- VarNode{&lt;org.joychou.controller.URLWhiteList: void url_bypass(java.lang.String,javax.servlet.http.HttpServletResponse)&gt;/url} -->
<g id="node9" class="node">
<title>VarNode{&lt;org.joychou.controller.URLWhiteList: void url_bypass(java.lang.String,javax.servlet.http.HttpServletResponse)&gt;/url}</title>
<polygon fill="gold" stroke="black" points="8032.68,-310.54 8032.68,-325.46 7734.66,-336 7313.2,-336 7015.18,-325.46 7015.18,-310.54 7313.2,-300 7734.66,-300 8032.68,-310.54"/>
<polygon fill="none" stroke="black" points="8036.68,-306.68 8036.68,-329.32 7734.73,-340 7313.12,-340 7011.18,-329.32 7011.18,-306.68 7313.12,-296 7734.73,-296 8036.68,-306.68"/>
<text text-anchor="middle" x="7523.93" y="-314.3" font-family="Times,serif" font-size="14.00">VarNode{&lt;org.joychou.controller.URLWhiteList: void url_bypass(java.lang.String,javax.servlet.http.HttpServletResponse)&gt;/url}</text>
</g>
<!-- VarNode{&lt;org.joychou.controller.SQLI: java.lang.String jdbc_ps_vuln(java.lang.String)&gt;/$r11} -->
<g id="node28" class="node">
<title>VarNode{&lt;org.joychou.controller.SQLI: java.lang.String jdbc_ps_vuln(java.lang.String)&gt;/$r11}</title>
<polygon fill="deepskyblue" stroke="black" points="4433.92,-14.54 4433.92,-29.46 4210.15,-40 3893.7,-40 3669.93,-29.46 3669.93,-14.54 3893.7,-4 4210.15,-4 4433.92,-14.54"/>
<polygon fill="none" stroke="black" points="4437.92,-10.73 4437.92,-33.27 4210.25,-44 3893.61,-44 3665.93,-33.27 3665.93,-10.73 3893.61,0 4210.25,0 4437.92,-10.73"/>
<text text-anchor="middle" x="4051.93" y="-18.3" font-family="Times,serif" font-size="14.00">VarNode{&lt;org.joychou.controller.SQLI: java.lang.String jdbc_ps_vuln(java.lang.String)&gt;/$r11}</text>
</g>
<!-- VarNode{&lt;org.joychou.controller.SQLI: java.lang.String jdbc_ps_vuln(java.lang.String)&gt;/$r10}&#45;&gt;VarNode{&lt;org.joychou.controller.SQLI: java.lang.String jdbc_ps_vuln(java.lang.String)&gt;/$r11} -->
<g id="edge2" class="edge">
<title>VarNode{&lt;org.joychou.controller.SQLI: java.lang.String jdbc_ps_vuln(java.lang.String)&gt;/$r10}&#45;&gt;VarNode{&lt;org.joychou.controller.SQLI: java.lang.String jdbc_ps_vuln(java.lang.String)&gt;/$r11}</title>
<path fill="none" stroke="#00cd00" stroke-dasharray="5,2" d="M4051.93,-79.84C4051.93,-72.16 4051.93,-62.88 4051.93,-54.05"/>
<polygon fill="#00cd00" stroke="#00cd00" points="4055.43,-54.03 4051.93,-44.03 4048.43,-54.03 4055.43,-54.03"/>
</g>
<!-- VarNode{&lt;org.joychou.controller.SSRF: java.lang.String httpURLConnection(java.lang.String)&gt;/url} -->
<g id="node11" class="node">
<title>VarNode{&lt;org.joychou.controller.SSRF: java.lang.String httpURLConnection(java.lang.String)&gt;/url}</title>
<polygon fill="gold" stroke="black" points="8863.22,-310.54 8863.22,-325.46 8627.56,-336 8294.29,-336 8058.63,-325.46 8058.63,-310.54 8294.29,-300 8627.56,-300 8863.22,-310.54"/>
<polygon fill="none" stroke="black" points="8867.22,-306.72 8867.22,-329.28 8627.65,-340 8294.2,-340 8054.63,-329.28 8054.63,-306.72 8294.2,-296 8627.65,-296 8867.22,-306.72"/>
<text text-anchor="middle" x="8460.93" y="-314.3" font-family="Times,serif" font-size="14.00">VarNode{&lt;org.joychou.controller.SSRF: java.lang.String httpURLConnection(java.lang.String)&gt;/url}</text>
</g>
<!-- VarNode{&lt;org.joychou.controller.Cookies: java.lang.String vuln05(java.lang.String)&gt;/nick} -->
<g id="node12" class="node">
<title>VarNode{&lt;org.joychou.controller.Cookies: java.lang.String vuln05(java.lang.String)&gt;/nick}</title>
<polygon fill="gold" stroke="black" points="9622.47,-310.54 9622.47,-325.46 9407.75,-336 9104.1,-336 8889.39,-325.46 8889.39,-310.54 9104.1,-300 9407.75,-300 9622.47,-310.54"/>
<polygon fill="none" stroke="black" points="9626.47,-306.74 9626.47,-329.26 9407.85,-340 9104,-340 8885.39,-329.26 8885.39,-306.74 9104,-296 9407.85,-296 9626.47,-306.74"/>
<text text-anchor="middle" x="9255.93" y="-314.3" font-family="Times,serif" font-size="14.00">VarNode{&lt;org.joychou.controller.Cookies: java.lang.String vuln05(java.lang.String)&gt;/nick}</text>
</g>
<!-- VarNode{&lt;org.joychou.controller.URLRedirect: java.lang.String redirect(java.lang.String)&gt;/url} -->
<g id="node13" class="node">
<title>VarNode{&lt;org.joychou.controller.URLRedirect: java.lang.String redirect(java.lang.String)&gt;/url}</title>
<polygon fill="gold" stroke="black" points="10415.23,-310.54 10415.23,-325.46 10190.7,-336 9873.16,-336 9648.62,-325.46 9648.62,-310.54 9873.16,-300 10190.7,-300 10415.23,-310.54"/>
<polygon fill="none" stroke="black" points="10419.23,-306.73 10419.23,-329.27 10190.79,-340 9873.06,-340 9644.62,-329.27 9644.62,-306.73 9873.06,-296 10190.79,-296 10419.23,-306.73"/>
<text text-anchor="middle" x="10031.93" y="-314.3" font-family="Times,serif" font-size="14.00">VarNode{&lt;org.joychou.controller.URLRedirect: java.lang.String redirect(java.lang.String)&gt;/url}</text>
</g>
<!-- VarNode{&lt;org.joychou.controller.SQLI: java.lang.String jdbc_sqli_vul(java.lang.String)&gt;/username} -->
<g id="node14" class="node">
<title>VarNode{&lt;org.joychou.controller.SQLI: java.lang.String jdbc_sqli_vul(java.lang.String)&gt;/username}</title>
<polygon fill="gold" stroke="black" points="11246.22,-310.54 11246.22,-325.46 11010.56,-336 10677.29,-336 10441.63,-325.46 10441.63,-310.54 10677.29,-300 11010.56,-300 11246.22,-310.54"/>
<polygon fill="none" stroke="black" points="11250.22,-306.72 11250.22,-329.28 11010.65,-340 10677.2,-340 10437.63,-329.28 10437.63,-306.72 10677.2,-296 11010.65,-296 11250.22,-306.72"/>
<text text-anchor="middle" x="10843.93" y="-314.3" font-family="Times,serif" font-size="14.00">VarNode{&lt;org.joychou.controller.SQLI: java.lang.String jdbc_sqli_vul(java.lang.String)&gt;/username}</text>
</g>
<!-- VarNode{&lt;org.joychou.controller.SQLI: java.lang.String jdbc_sqli_vul(java.lang.String)&gt;/$r8} -->
<g id="node24" class="node">
<title>VarNode{&lt;org.joychou.controller.SQLI: java.lang.String jdbc_sqli_vul(java.lang.String)&gt;/$r8}</title>
<polygon fill="floralwhite" stroke="black" points="10963.43,-260 10426.43,-260 10426.43,-224 10963.43,-224 10963.43,-260"/>
<text text-anchor="middle" x="10694.93" y="-238.3" font-family="Times,serif" font-size="14.00">VarNode{&lt;org.joychou.controller.SQLI: java.lang.String jdbc_sqli_vul(java.lang.String)&gt;/$r8}</text>
</g>
<!-- VarNode{&lt;org.joychou.controller.SQLI: java.lang.String jdbc_sqli_vul(java.lang.String)&gt;/username}&#45;&gt;VarNode{&lt;org.joychou.controller.SQLI: java.lang.String jdbc_sqli_vul(java.lang.String)&gt;/$r8} -->
<g id="edge3" class="edge">
<title>VarNode{&lt;org.joychou.controller.SQLI: java.lang.String jdbc_sqli_vul(java.lang.String)&gt;/username}&#45;&gt;VarNode{&lt;org.joychou.controller.SQLI: java.lang.String jdbc_sqli_vul(java.lang.String)&gt;/$r8}</title>
<path fill="none" stroke="#00cd00" stroke-dasharray="5,2" d="M10801.63,-295.99C10781.87,-286.18 10758.37,-274.51 10738.46,-264.62"/>
<polygon fill="#00cd00" stroke="#00cd00" points="10739.82,-261.39 10729.3,-260.07 10736.7,-267.66 10739.82,-261.39"/>
</g>
<!-- VarNode{&lt;org.joychou.controller.SQLI: java.lang.String jdbc_sqli_vul(java.lang.String)&gt;/$r10} -->
<g id="node25" class="node">
<title>VarNode{&lt;org.joychou.controller.SQLI: java.lang.String jdbc_sqli_vul(java.lang.String)&gt;/$r10}</title>
<polygon fill="floralwhite" stroke="black" points="11114.93,-188 10570.93,-188 10570.93,-152 11114.93,-152 11114.93,-188"/>
<text text-anchor="middle" x="10842.93" y="-166.3" font-family="Times,serif" font-size="14.00">VarNode{&lt;org.joychou.controller.SQLI: java.lang.String jdbc_sqli_vul(java.lang.String)&gt;/$r10}</text>
</g>
<!-- VarNode{&lt;org.joychou.controller.SQLI: java.lang.String jdbc_sqli_vul(java.lang.String)&gt;/username}&#45;&gt;VarNode{&lt;org.joychou.controller.SQLI: java.lang.String jdbc_sqli_vul(java.lang.String)&gt;/$r10} -->
<g id="edge4" class="edge">
<title>VarNode{&lt;org.joychou.controller.SQLI: java.lang.String jdbc_sqli_vul(java.lang.String)&gt;/username}&#45;&gt;VarNode{&lt;org.joychou.controller.SQLI: java.lang.String jdbc_sqli_vul(java.lang.String)&gt;/$r10}</title>
<path fill="none" stroke="#00cd00" stroke-dasharray="5,2" d="M10929.18,-295.86C10946.45,-287.54 10962.5,-276 10972.93,-260 10981.66,-246.59 10981.85,-237.28 10972.93,-224 10963.64,-210.18 10950.05,-199.96 10935.11,-192.41"/>
<polygon fill="#00cd00" stroke="#00cd00" points="10936.21,-189.06 10925.67,-188.04 10933.27,-195.41 10936.21,-189.06"/>
</g>
<!-- VarNode{&lt;org.joychou.controller.Rce: java.lang.String CommandExec(java.lang.String)&gt;/cmd} -->
<g id="node15" class="node">
<title>VarNode{&lt;org.joychou.controller.Rce: java.lang.String CommandExec(java.lang.String)&gt;/cmd}</title>
<polygon fill="gold" stroke="black" points="12039.23,-310.54 12039.23,-325.46 11814.7,-336 11497.16,-336 11272.62,-325.46 11272.62,-310.54 11497.16,-300 11814.7,-300 12039.23,-310.54"/>
<polygon fill="none" stroke="black" points="12043.23,-306.73 12043.23,-329.27 11814.79,-340 11497.06,-340 11268.62,-329.27 11268.62,-306.73 11497.06,-296 11814.79,-296 12043.23,-306.73"/>
<text text-anchor="middle" x="11655.93" y="-314.3" font-family="Times,serif" font-size="14.00">VarNode{&lt;org.joychou.controller.Rce: java.lang.String CommandExec(java.lang.String)&gt;/cmd}</text>
</g>
<!-- VarNode{&lt;org.joychou.controller.SQLI: java.lang.String jdbc_sqli_vul(java.lang.String)&gt;/$r12} -->
<g id="node16" class="node">
<title>VarNode{&lt;org.joychou.controller.SQLI: java.lang.String jdbc_sqli_vul(java.lang.String)&gt;/$r12}</title>
<polygon fill="deepskyblue" stroke="black" points="11225.82,-14.54 11225.82,-29.46 11001.53,-40 10684.33,-40 10460.03,-29.46 10460.03,-14.54 10684.33,-4 11001.53,-4 11225.82,-14.54"/>
<polygon fill="none" stroke="black" points="11229.83,-10.73 11229.83,-33.27 11001.62,-44 10684.23,-44 10456.03,-33.27 10456.03,-10.73 10684.23,0 11001.62,0 11229.83,-10.73"/>
<text text-anchor="middle" x="10842.93" y="-18.3" font-family="Times,serif" font-size="14.00">VarNode{&lt;org.joychou.controller.SQLI: java.lang.String jdbc_sqli_vul(java.lang.String)&gt;/$r12}</text>
</g>
<!-- VarNode{&lt;org.joychou.controller.URLWhiteList: java.lang.String regex(java.lang.String)&gt;/url} -->
<g id="node17" class="node">
<title>VarNode{&lt;org.joychou.controller.URLWhiteList: java.lang.String regex(java.lang.String)&gt;/url}</title>
<polygon fill="gold" stroke="black" points="12828.01,-310.54 12828.01,-325.46 12604.78,-336 12289.07,-336 12065.84,-325.46 12065.84,-310.54 12289.07,-300 12604.78,-300 12828.01,-310.54"/>
<polygon fill="none" stroke="black" points="12832.01,-306.73 12832.01,-329.27 12604.87,-340 12288.98,-340 12061.84,-329.27 12061.84,-306.73 12288.98,-296 12604.87,-296 12832.01,-306.73"/>
<text text-anchor="middle" x="12446.93" y="-314.3" font-family="Times,serif" font-size="14.00">VarNode{&lt;org.joychou.controller.URLWhiteList: java.lang.String regex(java.lang.String)&gt;/url}</text>
</g>
<!-- VarNode{&lt;org.joychou.controller.SQLI: java.util.List mybatisOrderBySec04(java.lang.String)&gt;/sort} -->
<g id="node18" class="node">
<title>VarNode{&lt;org.joychou.controller.SQLI: java.util.List mybatisOrderBySec04(java.lang.String)&gt;/sort}</title>
<polygon fill="gold" stroke="black" points="13659.22,-310.54 13659.22,-325.46 13423.56,-336 13090.29,-336 12854.63,-325.46 12854.63,-310.54 13090.29,-300 13423.56,-300 13659.22,-310.54"/>
<polygon fill="none" stroke="black" points="13663.22,-306.72 13663.22,-329.28 13423.65,-340 13090.2,-340 12850.63,-329.28 12850.63,-306.72 13090.2,-296 13423.65,-296 13663.22,-306.72"/>
<text text-anchor="middle" x="13256.93" y="-314.3" font-family="Times,serif" font-size="14.00">VarNode{&lt;org.joychou.controller.SQLI: java.util.List mybatisOrderBySec04(java.lang.String)&gt;/sort}</text>
</g>
<!-- VarNode{&lt;org.joychou.controller.SSRF: java.lang.String httpURLConnectionVuln(java.lang.String)&gt;/url} -->
<g id="node19" class="node">
<title>VarNode{&lt;org.joychou.controller.SSRF: java.lang.String httpURLConnectionVuln(java.lang.String)&gt;/url}</title>
<polygon fill="gold" stroke="black" points="14528.21,-310.54 14528.21,-325.46 14281.43,-336 13932.42,-336 13685.64,-325.46 13685.64,-310.54 13932.42,-300 14281.43,-300 14528.21,-310.54"/>
<polygon fill="none" stroke="black" points="14532.21,-306.71 14532.21,-329.29 14281.51,-340 13932.34,-340 13681.64,-329.29 13681.64,-306.71 13932.34,-296 14281.51,-296 14532.21,-306.71"/>
<text text-anchor="middle" x="14106.93" y="-314.3" font-family="Times,serif" font-size="14.00">VarNode{&lt;org.joychou.controller.SSRF: java.lang.String httpURLConnectionVuln(java.lang.String)&gt;/url}</text>
</g>
<!-- VarNode{&lt;org.joychou.controller.SQLI: java.lang.String jdbc_ps_vuln(java.lang.String)&gt;/username} -->
<g id="node20" class="node">
<title>VarNode{&lt;org.joychou.controller.SQLI: java.lang.String jdbc_ps_vuln(java.lang.String)&gt;/username}</title>
<polygon fill="gold" stroke="black" points="4453.81,-310.54 4453.81,-325.46 4218.39,-336 3885.46,-336 3650.04,-325.46 3650.04,-310.54 3885.46,-300 4218.39,-300 4453.81,-310.54"/>
<polygon fill="none" stroke="black" points="4457.82,-306.72 4457.82,-329.28 4218.48,-340 3885.37,-340 3646.04,-329.28 3646.04,-306.72 3885.37,-296 4218.48,-296 4457.82,-306.72"/>
<text text-anchor="middle" x="4051.93" y="-314.3" font-family="Times,serif" font-size="14.00">VarNode{&lt;org.joychou.controller.SQLI: java.lang.String jdbc_ps_vuln(java.lang.String)&gt;/username}</text>
</g>
<!-- VarNode{&lt;org.joychou.controller.SQLI: java.lang.String jdbc_ps_vuln(java.lang.String)&gt;/username}&#45;&gt;VarNode{&lt;org.joychou.controller.SQLI: java.lang.String jdbc_ps_vuln(java.lang.String)&gt;/$r9} -->
<g id="edge6" class="edge">
<title>VarNode{&lt;org.joychou.controller.SQLI: java.lang.String jdbc_ps_vuln(java.lang.String)&gt;/username}&#45;&gt;VarNode{&lt;org.joychou.controller.SQLI: java.lang.String jdbc_ps_vuln(java.lang.String)&gt;/$r9}</title>
<path fill="none" stroke="#00cd00" stroke-dasharray="5,2" d="M3966.67,-295.86C3949.4,-287.54 3933.35,-276 3922.93,-260 3914.19,-246.59 3914.02,-237.29 3922.93,-224 3932.19,-210.18 3945.78,-199.95 3960.71,-192.4"/>
<polygon fill="#00cd00" stroke="#00cd00" points="3962.54,-195.41 3970.14,-188.03 3959.6,-189.05 3962.54,-195.41"/>
</g>
<!-- VarNode{&lt;org.joychou.controller.SQLI: java.lang.String jdbc_ps_vuln(java.lang.String)&gt;/$r7} -->
<g id="node30" class="node">
<title>VarNode{&lt;org.joychou.controller.SQLI: java.lang.String jdbc_ps_vuln(java.lang.String)&gt;/$r7}</title>
<polygon fill="floralwhite" stroke="black" points="4467.93,-260 3931.93,-260 3931.93,-224 4467.93,-224 4467.93,-260"/>
<text text-anchor="middle" x="4199.93" y="-238.3" font-family="Times,serif" font-size="14.00">VarNode{&lt;org.joychou.controller.SQLI: java.lang.String jdbc_ps_vuln(java.lang.String)&gt;/$r7}</text>
</g>
<!-- VarNode{&lt;org.joychou.controller.SQLI: java.lang.String jdbc_ps_vuln(java.lang.String)&gt;/username}&#45;&gt;VarNode{&lt;org.joychou.controller.SQLI: java.lang.String jdbc_ps_vuln(java.lang.String)&gt;/$r7} -->
<g id="edge5" class="edge">
<title>VarNode{&lt;org.joychou.controller.SQLI: java.lang.String jdbc_ps_vuln(java.lang.String)&gt;/username}&#45;&gt;VarNode{&lt;org.joychou.controller.SQLI: java.lang.String jdbc_ps_vuln(java.lang.String)&gt;/$r7}</title>
<path fill="none" stroke="#00cd00" stroke-dasharray="5,2" d="M4093.94,-295.99C4113.57,-286.18 4136.91,-274.51 4156.68,-264.62"/>
<polygon fill="#00cd00" stroke="#00cd00" points="4158.4,-267.68 4165.78,-260.07 4155.27,-261.41 4158.4,-267.68"/>
</g>
<!-- VarNode{&lt;org.joychou.controller.SSRF: java.lang.String ImageIO(java.lang.String)&gt;/url} -->
<g id="node21" class="node">
<title>VarNode{&lt;org.joychou.controller.SSRF: java.lang.String ImageIO(java.lang.String)&gt;/url}</title>
<polygon fill="gold" stroke="black" points="15273.4,-310.54 15273.4,-325.46 15062.82,-336 14765.03,-336 14554.46,-325.46 14554.46,-310.54 14765.03,-300 15062.82,-300 15273.4,-310.54"/>
<polygon fill="none" stroke="black" points="15277.4,-306.74 15277.4,-329.26 15062.92,-340 14764.93,-340 14550.46,-329.26 14550.46,-306.74 14764.93,-296 15062.92,-296 15277.4,-306.74"/>
<text text-anchor="middle" x="14913.93" y="-314.3" font-family="Times,serif" font-size="14.00">VarNode{&lt;org.joychou.controller.SSRF: java.lang.String ImageIO(java.lang.String)&gt;/url}</text>
</g>
<!-- VarNode{&lt;org.joychou.controller.SSRF: java.lang.String IOUtils(java.lang.String)&gt;/url} -->
<g id="node22" class="node">
<title>VarNode{&lt;org.joychou.controller.SSRF: java.lang.String IOUtils(java.lang.String)&gt;/url}</title>
<polygon fill="gold" stroke="black" points="16006.64,-310.54 16006.64,-325.46 15799.44,-336 15506.41,-336 15299.21,-325.46 15299.21,-310.54 15506.41,-300 15799.44,-300 16006.64,-310.54"/>
<polygon fill="none" stroke="black" points="16010.64,-306.74 16010.64,-329.26 15799.54,-340 15506.31,-340 15295.21,-329.26 15295.21,-306.74 15506.31,-296 15799.54,-296 16010.64,-306.74"/>
<text text-anchor="middle" x="15652.93" y="-314.3" font-family="Times,serif" font-size="14.00">VarNode{&lt;org.joychou.controller.SSRF: java.lang.String IOUtils(java.lang.String)&gt;/url}</text>
</g>
<!-- VarNode{&lt;org.joychou.impl.HttpServiceImpl: java.lang.String RequestHttp(java.lang.String,org.springframework.http.HttpHeaders)&gt;/url} -->
<g id="node23" class="node">
<title>VarNode{&lt;org.joychou.impl.HttpServiceImpl: java.lang.String RequestHttp(java.lang.String,org.springframework.http.HttpHeaders)&gt;/url}</title>
<polygon fill="deepskyblue" stroke="black" points="17128.97,-310.54 17128.97,-325.46 16807.93,-336 16353.92,-336 16032.89,-325.46 16032.89,-310.54 16353.92,-300 16807.93,-300 17128.97,-310.54"/>
<polygon fill="none" stroke="black" points="17132.97,-306.67 17132.97,-329.33 16808,-340 16353.85,-340 16028.89,-329.33 16028.89,-306.67 16353.85,-296 16808,-296 17132.97,-306.67"/>
<text text-anchor="middle" x="16580.93" y="-314.3" font-family="Times,serif" font-size="14.00">VarNode{&lt;org.joychou.impl.HttpServiceImpl: java.lang.String RequestHttp(java.lang.String,org.springframework.http.HttpHeaders)&gt;/url}</text>
</g>
<!-- VarNode{&lt;org.joychou.controller.SQLI: java.lang.String jdbc_sqli_vul(java.lang.String)&gt;/$r8}&#45;&gt;VarNode{&lt;org.joychou.controller.SQLI: java.lang.String jdbc_sqli_vul(java.lang.String)&gt;/$r10} -->
<g id="edge7" class="edge">
<title>VarNode{&lt;org.joychou.controller.SQLI: java.lang.String jdbc_sqli_vul(java.lang.String)&gt;/$r8}&#45;&gt;VarNode{&lt;org.joychou.controller.SQLI: java.lang.String jdbc_sqli_vul(java.lang.String)&gt;/$r10}</title>
<path fill="none" stroke="#00cd00" stroke-dasharray="5,2" d="M10731.13,-223.88C10751.18,-214.39 10776.3,-202.51 10797.64,-192.42"/>
<polygon fill="#00cd00" stroke="#00cd00" points="10799.3,-195.51 10806.84,-188.07 10796.3,-189.18 10799.3,-195.51"/>
</g>
<!-- VarNode{&lt;org.joychou.controller.SQLI: java.lang.String jdbc_sqli_vul(java.lang.String)&gt;/$r11} -->
<g id="node35" class="node">
<title>VarNode{&lt;org.joychou.controller.SQLI: java.lang.String jdbc_sqli_vul(java.lang.String)&gt;/$r11}</title>
<polygon fill="floralwhite" stroke="black" points="11114.93,-116 10570.93,-116 10570.93,-80 11114.93,-80 11114.93,-116"/>
<text text-anchor="middle" x="10842.93" y="-94.3" font-family="Times,serif" font-size="14.00">VarNode{&lt;org.joychou.controller.SQLI: java.lang.String jdbc_sqli_vul(java.lang.String)&gt;/$r11}</text>
</g>
<!-- VarNode{&lt;org.joychou.controller.SQLI: java.lang.String jdbc_sqli_vul(java.lang.String)&gt;/$r10}&#45;&gt;VarNode{&lt;org.joychou.controller.SQLI: java.lang.String jdbc_sqli_vul(java.lang.String)&gt;/$r11} -->
<g id="edge8" class="edge">
<title>VarNode{&lt;org.joychou.controller.SQLI: java.lang.String jdbc_sqli_vul(java.lang.String)&gt;/$r10}&#45;&gt;VarNode{&lt;org.joychou.controller.SQLI: java.lang.String jdbc_sqli_vul(java.lang.String)&gt;/$r11}</title>
<path fill="none" stroke="#00cd00" stroke-dasharray="5,2" d="M10842.93,-151.7C10842.93,-143.98 10842.93,-134.71 10842.93,-126.11"/>
<polygon fill="#00cd00" stroke="#00cd00" points="10846.43,-126.1 10842.93,-116.1 10839.43,-126.1 10846.43,-126.1"/>
</g>
<!-- VarNode{&lt;org.joychou.controller.Cookies: java.lang.String vuln06(java.lang.String)&gt;/nick} -->
<g id="node26" class="node">
<title>VarNode{&lt;org.joychou.controller.Cookies: java.lang.String vuln06(java.lang.String)&gt;/nick}</title>
<polygon fill="gold" stroke="black" points="17888.47,-310.54 17888.47,-325.46 17673.75,-336 17370.1,-336 17155.39,-325.46 17155.39,-310.54 17370.1,-300 17673.75,-300 17888.47,-310.54"/>
<polygon fill="none" stroke="black" points="17892.47,-306.74 17892.47,-329.26 17673.85,-340 17370,-340 17151.39,-329.26 17151.39,-306.74 17370,-296 17673.85,-296 17892.47,-306.74"/>
<text text-anchor="middle" x="17521.93" y="-314.3" font-family="Times,serif" font-size="14.00">VarNode{&lt;org.joychou.controller.Cookies: java.lang.String vuln06(java.lang.String)&gt;/nick}</text>
</g>
<!-- VarNode{&lt;org.joychou.controller.URLWhiteList: java.lang.String sec_array_indexOf(java.lang.String)&gt;/url} -->
<g id="node27" class="node">
<title>VarNode{&lt;org.joychou.controller.URLWhiteList: java.lang.String sec_array_indexOf(java.lang.String)&gt;/url}</title>
<polygon fill="gold" stroke="black" points="18777.82,-310.54 18777.82,-325.46 18524.82,-336 18167.03,-336 17914.04,-325.46 17914.04,-310.54 18167.03,-300 18524.82,-300 18777.82,-310.54"/>
<polygon fill="none" stroke="black" points="18781.82,-306.71 18781.82,-329.29 18524.9,-340 18166.95,-340 17910.04,-329.29 17910.04,-306.71 18166.95,-296 18524.9,-296 18781.82,-306.71"/>
<text text-anchor="middle" x="18345.93" y="-314.3" font-family="Times,serif" font-size="14.00">VarNode{&lt;org.joychou.controller.URLWhiteList: java.lang.String sec_array_indexOf(java.lang.String)&gt;/url}</text>
</g>
<!-- VarNode{&lt;org.joychou.controller.URLWhiteList: java.lang.String endsWith(java.lang.String)&gt;/url} -->
<g id="node29" class="node">
<title>VarNode{&lt;org.joychou.controller.URLWhiteList: java.lang.String endsWith(java.lang.String)&gt;/url}</title>
<polygon fill="gold" stroke="black" points="19596.06,-310.54 19596.06,-325.46 19364.01,-336 19035.84,-336 18803.79,-325.46 18803.79,-310.54 19035.84,-300 19364.01,-300 19596.06,-310.54"/>
<polygon fill="none" stroke="black" points="19600.06,-306.72 19600.06,-329.28 19364.1,-340 19035.75,-340 18799.79,-329.28 18799.79,-306.72 19035.75,-296 19364.1,-296 19600.06,-306.72"/>
<text text-anchor="middle" x="19199.93" y="-314.3" font-family="Times,serif" font-size="14.00">VarNode{&lt;org.joychou.controller.URLWhiteList: java.lang.String endsWith(java.lang.String)&gt;/url}</text>
</g>
<!-- VarNode{&lt;org.joychou.controller.SQLI: java.lang.String jdbc_ps_vuln(java.lang.String)&gt;/$r7}&#45;&gt;VarNode{&lt;org.joychou.controller.SQLI: java.lang.String jdbc_ps_vuln(java.lang.String)&gt;/$r9} -->
<g id="edge9" class="edge">
<title>VarNode{&lt;org.joychou.controller.SQLI: java.lang.String jdbc_ps_vuln(java.lang.String)&gt;/$r7}&#45;&gt;VarNode{&lt;org.joychou.controller.SQLI: java.lang.String jdbc_ps_vuln(java.lang.String)&gt;/$r9}</title>
<path fill="none" stroke="#00cd00" stroke-dasharray="5,2" d="M4163.72,-223.88C4143.67,-214.39 4118.55,-202.51 4097.21,-192.42"/>
<polygon fill="#00cd00" stroke="#00cd00" points="4098.55,-189.18 4088.01,-188.07 4095.56,-195.51 4098.55,-189.18"/>
</g>
<!-- VarNode{&lt;org.joychou.controller.SSRF: java.lang.String URLConnectionSec(java.lang.String)&gt;/url} -->
<g id="node31" class="node">
<title>VarNode{&lt;org.joychou.controller.SSRF: java.lang.String URLConnectionSec(java.lang.String)&gt;/url}</title>
<polygon fill="gold" stroke="black" points="20425.81,-310.54 20425.81,-325.46 20190.39,-336 19857.46,-336 19622.04,-325.46 19622.04,-310.54 19857.46,-300 20190.39,-300 20425.81,-310.54"/>
<polygon fill="none" stroke="black" points="20429.82,-306.72 20429.82,-329.28 20190.48,-340 19857.37,-340 19618.04,-329.28 19618.04,-306.72 19857.37,-296 20190.48,-296 20429.82,-306.72"/>
<text text-anchor="middle" x="20023.93" y="-314.3" font-family="Times,serif" font-size="14.00">VarNode{&lt;org.joychou.controller.SSRF: java.lang.String URLConnectionSec(java.lang.String)&gt;/url}</text>
</g>
<!-- VarNode{&lt;org.joychou.controller.URLWhiteList: java.lang.String contains(java.lang.String)&gt;/url} -->
<g id="node32" class="node">
<title>VarNode{&lt;org.joychou.controller.URLWhiteList: java.lang.String contains(java.lang.String)&gt;/url}</title>
<polygon fill="gold" stroke="black" points="21235.62,-310.54 21235.62,-325.46 21006.17,-336 20681.68,-336 20452.23,-325.46 20452.23,-310.54 20681.68,-300 21006.17,-300 21235.62,-310.54"/>
<polygon fill="none" stroke="black" points="21239.62,-306.72 21239.62,-329.28 21006.26,-340 20681.59,-340 20448.24,-329.28 20448.24,-306.72 20681.59,-296 21006.26,-296 21239.62,-306.72"/>
<text text-anchor="middle" x="20843.93" y="-314.3" font-family="Times,serif" font-size="14.00">VarNode{&lt;org.joychou.controller.URLWhiteList: java.lang.String contains(java.lang.String)&gt;/url}</text>
</g>
<!-- VarNode{&lt;org.joychou.controller.SSRF: java.lang.String URLConnectionVuln(java.lang.String)&gt;/url} -->
<g id="node33" class="node">
<title>VarNode{&lt;org.joychou.controller.SSRF: java.lang.String URLConnectionVuln(java.lang.String)&gt;/url}</title>
<polygon fill="gold" stroke="black" points="22074.66,-310.54 22074.66,-325.46 21836.4,-336 21499.45,-336 21261.19,-325.46 21261.19,-310.54 21499.45,-300 21836.4,-300 22074.66,-310.54"/>
<polygon fill="none" stroke="black" points="22078.66,-306.72 22078.66,-329.28 21836.49,-340 21499.36,-340 21257.19,-329.28 21257.19,-306.72 21499.36,-296 21836.49,-296 22078.66,-306.72"/>
<text text-anchor="middle" x="21667.93" y="-314.3" font-family="Times,serif" font-size="14.00">VarNode{&lt;org.joychou.controller.SSRF: java.lang.String URLConnectionVuln(java.lang.String)&gt;/url}</text>
</g>
<!-- VarNode{&lt;org.joychou.controller.URLWhiteList: java.lang.String sec(java.lang.String)&gt;/url} -->
<g id="node34" class="node">
<title>VarNode{&lt;org.joychou.controller.URLWhiteList: java.lang.String sec(java.lang.String)&gt;/url}</title>
<polygon fill="gold" stroke="black" points="22845.22,-310.54 22845.22,-325.46 22627.14,-336 22318.72,-336 22100.63,-325.46 22100.63,-310.54 22318.72,-300 22627.14,-300 22845.22,-310.54"/>
<polygon fill="none" stroke="black" points="22849.22,-306.73 22849.22,-329.27 22627.23,-340 22318.62,-340 22096.63,-329.27 22096.63,-306.73 22318.62,-296 22627.23,-296 22849.22,-306.73"/>
<text text-anchor="middle" x="22472.93" y="-314.3" font-family="Times,serif" font-size="14.00">VarNode{&lt;org.joychou.controller.URLWhiteList: java.lang.String sec(java.lang.String)&gt;/url}</text>
</g>
<!-- VarNode{&lt;org.joychou.controller.SQLI: java.lang.String jdbc_sqli_vul(java.lang.String)&gt;/$r11}&#45;&gt;VarNode{&lt;org.joychou.controller.SQLI: java.lang.String jdbc_sqli_vul(java.lang.String)&gt;/$r12} -->
<g id="edge10" class="edge">
<title>VarNode{&lt;org.joychou.controller.SQLI: java.lang.String jdbc_sqli_vul(java.lang.String)&gt;/$r11}&#45;&gt;VarNode{&lt;org.joychou.controller.SQLI: java.lang.String jdbc_sqli_vul(java.lang.String)&gt;/$r12}</title>
<path fill="none" stroke="#00cd00" stroke-dasharray="5,2" d="M10842.93,-79.84C10842.93,-72.16 10842.93,-62.88 10842.93,-54.05"/>
<polygon fill="#00cd00" stroke="#00cd00" points="10846.43,-54.03 10842.93,-44.03 10839.43,-54.03 10846.43,-54.03"/>
</g>
<!-- VarNode{&lt;org.joychou.controller.PathTraversal: java.lang.String getImageSec(java.lang.String)&gt;/filepath} -->
<g id="node36" class="node">
<title>VarNode{&lt;org.joychou.controller.PathTraversal: java.lang.String getImageSec(java.lang.String)&gt;/filepath}</title>
<polygon fill="gold" stroke="black" points="23718.43,-310.54 23718.43,-325.46 23470.35,-336 23119.51,-336 22871.42,-325.46 22871.42,-310.54 23119.51,-300 23470.35,-300 23718.43,-310.54"/>
<polygon fill="none" stroke="black" points="23722.43,-306.71 23722.43,-329.29 23470.43,-340 23119.42,-340 22867.42,-329.29 22867.42,-306.71 23119.42,-296 23470.43,-296 23722.43,-306.71"/>
<text text-anchor="middle" x="23294.93" y="-314.3" font-family="Times,serif" font-size="14.00">VarNode{&lt;org.joychou.controller.PathTraversal: java.lang.String getImageSec(java.lang.String)&gt;/filepath}</text>
</g>
</g>
</svg>
