<?xml version="1.0" encoding="UTF-8" standalone="no"?>
<!DOCTYPE svg PUBLIC "-//W3C//DTD SVG 1.1//EN"
 "http://www.w3.org/Graphics/SVG/1.1/DTD/svg11.dtd">
<!-- Generated by graphviz version 2.43.0 (0)
 -->
<!-- Title: G Pages: 1 -->
<svg width="831pt" height="348pt"
 viewBox="0.00 0.00 830.90 348.00" xmlns="http://www.w3.org/2000/svg" xmlns:xlink="http://www.w3.org/1999/xlink">
<g id="graph0" class="graph" transform="scale(1 1) rotate(0) translate(4 344)">
<title>G</title>
<polygon fill="white" stroke="transparent" points="-4,4 -4,-344 826.9,-344 826.9,4 -4,4"/>
<!-- VarNode{&lt;org.joychou.controller.SQLI: java.lang.String jdbc_sqli_vul(java.lang.String)&gt;/username} -->
<g id="node1" class="node">
<title>VarNode{&lt;org.joychou.controller.SQLI: java.lang.String jdbc_sqli_vul(java.lang.String)&gt;/username}</title>
<polygon fill="gold" stroke="black" points="818.8,-310.54 818.8,-325.46 583.14,-336 249.86,-336 14.2,-325.46 14.2,-310.54 249.86,-300 583.14,-300 818.8,-310.54"/>
<polygon fill="none" stroke="black" points="822.8,-306.72 822.8,-329.28 583.23,-340 249.77,-340 10.2,-329.28 10.2,-306.72 249.77,-296 583.23,-296 822.8,-306.72"/>
<text text-anchor="middle" x="416.5" y="-314.3" font-family="Times,serif" font-size="14.00">VarNode{&lt;org.joychou.controller.SQLI: java.lang.String jdbc_sqli_vul(java.lang.String)&gt;/username}</text>
</g>
<!-- VarNode{&lt;org.joychou.controller.SQLI: java.lang.String jdbc_sqli_vul(java.lang.String)&gt;/$r8} -->
<g id="node3" class="node">
<title>VarNode{&lt;org.joychou.controller.SQLI: java.lang.String jdbc_sqli_vul(java.lang.String)&gt;/$r8}</title>
<polygon fill="floralwhite" stroke="black" points="537,-260 0,-260 0,-224 537,-224 537,-260"/>
<text text-anchor="middle" x="268.5" y="-238.3" font-family="Times,serif" font-size="14.00">VarNode{&lt;org.joychou.controller.SQLI: java.lang.String jdbc_sqli_vul(java.lang.String)&gt;/$r8}</text>
</g>
<!-- VarNode{&lt;org.joychou.controller.SQLI: java.lang.String jdbc_sqli_vul(java.lang.String)&gt;/username}&#45;&gt;VarNode{&lt;org.joychou.controller.SQLI: java.lang.String jdbc_sqli_vul(java.lang.String)&gt;/$r8} -->
<g id="edge1" class="edge">
<title>VarNode{&lt;org.joychou.controller.SQLI: java.lang.String jdbc_sqli_vul(java.lang.String)&gt;/username}&#45;&gt;VarNode{&lt;org.joychou.controller.SQLI: java.lang.String jdbc_sqli_vul(java.lang.String)&gt;/$r8}</title>
<path fill="none" stroke="#00cd00" stroke-dasharray="5,2" d="M374.49,-295.99C354.86,-286.18 331.52,-274.51 311.74,-264.62"/>
<polygon fill="#00cd00" stroke="#00cd00" points="313.16,-261.41 302.65,-260.07 310.02,-267.68 313.16,-261.41"/>
</g>
<!-- VarNode{&lt;org.joychou.controller.SQLI: java.lang.String jdbc_sqli_vul(java.lang.String)&gt;/$r10} -->
<g id="node4" class="node">
<title>VarNode{&lt;org.joychou.controller.SQLI: java.lang.String jdbc_sqli_vul(java.lang.String)&gt;/$r10}</title>
<polygon fill="floralwhite" stroke="black" points="688.5,-188 144.5,-188 144.5,-152 688.5,-152 688.5,-188"/>
<text text-anchor="middle" x="416.5" y="-166.3" font-family="Times,serif" font-size="14.00">VarNode{&lt;org.joychou.controller.SQLI: java.lang.String jdbc_sqli_vul(java.lang.String)&gt;/$r10}</text>
</g>
<!-- VarNode{&lt;org.joychou.controller.SQLI: java.lang.String jdbc_sqli_vul(java.lang.String)&gt;/username}&#45;&gt;VarNode{&lt;org.joychou.controller.SQLI: java.lang.String jdbc_sqli_vul(java.lang.String)&gt;/$r10} -->
<g id="edge2" class="edge">
<title>VarNode{&lt;org.joychou.controller.SQLI: java.lang.String jdbc_sqli_vul(java.lang.String)&gt;/username}&#45;&gt;VarNode{&lt;org.joychou.controller.SQLI: java.lang.String jdbc_sqli_vul(java.lang.String)&gt;/$r10}</title>
<path fill="none" stroke="#00cd00" stroke-dasharray="5,2" d="M502.4,-295.99C519.81,-287.67 535.99,-276.09 546.5,-260 555.25,-246.61 555.43,-237.28 546.5,-224 537.21,-210.18 523.62,-199.96 508.69,-192.41"/>
<polygon fill="#00cd00" stroke="#00cd00" points="509.79,-189.06 499.24,-188.04 506.85,-195.41 509.79,-189.06"/>
</g>
<!-- VarNode{&lt;org.joychou.controller.SQLI: java.lang.String jdbc_sqli_vul(java.lang.String)&gt;/$r12} -->
<g id="node2" class="node">
<title>VarNode{&lt;org.joychou.controller.SQLI: java.lang.String jdbc_sqli_vul(java.lang.String)&gt;/$r12}</title>
<polygon fill="deepskyblue" stroke="black" points="799.4,-14.54 799.4,-29.46 575.1,-40 257.9,-40 33.6,-29.46 33.6,-14.54 257.9,-4 575.1,-4 799.4,-14.54"/>
<polygon fill="none" stroke="black" points="803.4,-10.73 803.4,-33.27 575.2,-44 257.8,-44 29.6,-33.27 29.6,-10.73 257.8,0 575.2,0 803.4,-10.73"/>
<text text-anchor="middle" x="416.5" y="-18.3" font-family="Times,serif" font-size="14.00">VarNode{&lt;org.joychou.controller.SQLI: java.lang.String jdbc_sqli_vul(java.lang.String)&gt;/$r12}</text>
</g>
<!-- VarNode{&lt;org.joychou.controller.SQLI: java.lang.String jdbc_sqli_vul(java.lang.String)&gt;/$r8}&#45;&gt;VarNode{&lt;org.joychou.controller.SQLI: java.lang.String jdbc_sqli_vul(java.lang.String)&gt;/$r10} -->
<g id="edge3" class="edge">
<title>VarNode{&lt;org.joychou.controller.SQLI: java.lang.String jdbc_sqli_vul(java.lang.String)&gt;/$r8}&#45;&gt;VarNode{&lt;org.joychou.controller.SQLI: java.lang.String jdbc_sqli_vul(java.lang.String)&gt;/$r10}</title>
<path fill="none" stroke="#00cd00" stroke-dasharray="5,2" d="M304.7,-223.88C324.76,-214.39 349.87,-202.51 371.21,-192.42"/>
<polygon fill="#00cd00" stroke="#00cd00" points="372.87,-195.51 380.41,-188.07 369.88,-189.18 372.87,-195.51"/>
</g>
<!-- VarNode{&lt;org.joychou.controller.SQLI: java.lang.String jdbc_sqli_vul(java.lang.String)&gt;/$r11} -->
<g id="node5" class="node">
<title>VarNode{&lt;org.joychou.controller.SQLI: java.lang.String jdbc_sqli_vul(java.lang.String)&gt;/$r11}</title>
<polygon fill="floralwhite" stroke="black" points="688.5,-116 144.5,-116 144.5,-80 688.5,-80 688.5,-116"/>
<text text-anchor="middle" x="416.5" y="-94.3" font-family="Times,serif" font-size="14.00">VarNode{&lt;org.joychou.controller.SQLI: java.lang.String jdbc_sqli_vul(java.lang.String)&gt;/$r11}</text>
</g>
<!-- VarNode{&lt;org.joychou.controller.SQLI: java.lang.String jdbc_sqli_vul(java.lang.String)&gt;/$r10}&#45;&gt;VarNode{&lt;org.joychou.controller.SQLI: java.lang.String jdbc_sqli_vul(java.lang.String)&gt;/$r11} -->
<g id="edge4" class="edge">
<title>VarNode{&lt;org.joychou.controller.SQLI: java.lang.String jdbc_sqli_vul(java.lang.String)&gt;/$r10}&#45;&gt;VarNode{&lt;org.joychou.controller.SQLI: java.lang.String jdbc_sqli_vul(java.lang.String)&gt;/$r11}</title>
<path fill="none" stroke="#00cd00" stroke-dasharray="5,2" d="M416.5,-151.7C416.5,-143.98 416.5,-134.71 416.5,-126.11"/>
<polygon fill="#00cd00" stroke="#00cd00" points="420,-126.1 416.5,-116.1 413,-126.1 420,-126.1"/>
</g>
<!-- VarNode{&lt;org.joychou.controller.SQLI: java.lang.String jdbc_sqli_vul(java.lang.String)&gt;/$r11}&#45;&gt;VarNode{&lt;org.joychou.controller.SQLI: java.lang.String jdbc_sqli_vul(java.lang.String)&gt;/$r12} -->
<g id="edge5" class="edge">
<title>VarNode{&lt;org.joychou.controller.SQLI: java.lang.String jdbc_sqli_vul(java.lang.String)&gt;/$r11}&#45;&gt;VarNode{&lt;org.joychou.controller.SQLI: java.lang.String jdbc_sqli_vul(java.lang.String)&gt;/$r12}</title>
<path fill="none" stroke="#00cd00" stroke-dasharray="5,2" d="M416.5,-79.84C416.5,-72.16 416.5,-62.88 416.5,-54.05"/>
<polygon fill="#00cd00" stroke="#00cd00" points="420,-54.03 416.5,-44.03 413,-54.03 420,-54.03"/>
</g>
</g>
</svg>
