<?xml version="1.0" encoding="UTF-8" standalone="no"?>
<!DOCTYPE svg PUBLIC "-//W3C//DTD SVG 1.1//EN"
 "http://www.w3.org/Graphics/SVG/1.1/DTD/svg11.dtd">
<!-- Generated by graphviz version 2.43.0 (0)
 -->
<!-- Title: G Pages: 1 -->
<svg width="1213pt" height="132pt"
 viewBox="0.00 0.00 1213.34 132.00" xmlns="http://www.w3.org/2000/svg" xmlns:xlink="http://www.w3.org/1999/xlink">
<g id="graph0" class="graph" transform="scale(1 1) rotate(0) translate(4 128)">
<title>G</title>
<polygon fill="white" stroke="transparent" points="-4,4 -4,-128 1209.34,-128 1209.34,4 -4,4"/>
<!-- VarNode{&lt;org.joychou.controller.SSRF: java.lang.String RestTemplateUrlBanRedirects(java.lang.String)&gt;/url} -->
<g id="node1" class="node">
<title>VarNode{&lt;org.joychou.controller.SSRF: java.lang.String RestTemplateUrlBanRedirects(java.lang.String)&gt;/url}</title>
<polygon fill="gold" stroke="black" points="1044.26,-94.54 1044.26,-109.46 785.58,-120 419.76,-120 161.08,-109.46 161.08,-94.54 419.76,-84 785.58,-84 1044.26,-94.54"/>
<polygon fill="none" stroke="black" points="1048.26,-90.7 1048.26,-113.3 785.67,-124 419.68,-124 157.09,-113.3 157.09,-90.7 419.68,-80 785.67,-80 1048.26,-90.7"/>
<text text-anchor="middle" x="602.67" y="-98.3" font-family="Times,serif" font-size="14.00">VarNode{&lt;org.joychou.controller.SSRF: java.lang.String RestTemplateUrlBanRedirects(java.lang.String)&gt;/url}</text>
</g>
<!-- VarNode{&lt;org.joychou.impl.HttpServiceImpl: java.lang.String RequestHttpBanRedirects(java.lang.String,org.springframework.http.HttpHeaders)&gt;/url} -->
<g id="node2" class="node">
<title>VarNode{&lt;org.joychou.impl.HttpServiceImpl: java.lang.String RequestHttpBanRedirects(java.lang.String,org.springframework.http.HttpHeaders)&gt;/url}</title>
<polygon fill="deepskyblue" stroke="black" points="1201.52,-14.54 1201.52,-29.46 850.72,-40 354.62,-40 3.83,-29.46 3.83,-14.54 354.62,-4 850.72,-4 1201.52,-14.54"/>
<polygon fill="none" stroke="black" points="1205.52,-10.66 1205.52,-33.34 850.78,-44 354.56,-44 -0.17,-33.34 -0.17,-10.66 354.56,0 850.78,0 1205.52,-10.66"/>
<text text-anchor="middle" x="602.67" y="-18.3" font-family="Times,serif" font-size="14.00">VarNode{&lt;org.joychou.impl.HttpServiceImpl: java.lang.String RequestHttpBanRedirects(java.lang.String,org.springframework.http.HttpHeaders)&gt;/url}</text>
</g>
<!-- VarNode{&lt;org.joychou.controller.SSRF: java.lang.String RestTemplateUrlBanRedirects(java.lang.String)&gt;/url}&#45;&gt;VarNode{&lt;org.joychou.impl.HttpServiceImpl: java.lang.String RequestHttpBanRedirects(java.lang.String,org.springframework.http.HttpHeaders)&gt;/url} -->
<g id="edge1" class="edge">
<title>VarNode{&lt;org.joychou.controller.SSRF: java.lang.String RestTemplateUrlBanRedirects(java.lang.String)&gt;/url}&#45;&gt;VarNode{&lt;org.joychou.impl.HttpServiceImpl: java.lang.String RequestHttpBanRedirects(java.lang.String,org.springframework.http.HttpHeaders)&gt;/url}</title>
<path fill="none" stroke="blue" d="M602.67,-79.69C602.67,-71.8 602.67,-62.68 602.67,-54.1"/>
<polygon fill="blue" stroke="blue" points="606.17,-54.02 602.67,-44.02 599.17,-54.02 606.17,-54.02"/>
</g>
</g>
</svg>
