<?xml version="1.0" encoding="UTF-8" standalone="no"?>
<!DOCTYPE svg PUBLIC "-//W3C//DTD SVG 1.1//EN"
 "http://www.w3.org/Graphics/SVG/1.1/DTD/svg11.dtd">
<!-- Generated by graphviz version 2.43.0 (0)
 -->
<!-- Title: G Pages: 1 -->
<svg width="2336pt" height="132pt"
 viewBox="0.00 0.00 2335.69 132.00" xmlns="http://www.w3.org/2000/svg" xmlns:xlink="http://www.w3.org/1999/xlink">
<g id="graph0" class="graph" transform="scale(1 1) rotate(0) translate(4 128)">
<title>G</title>
<polygon fill="white" stroke="transparent" points="-4,4 -4,-128 2331.69,-128 2331.69,4 -4,4"/>
<!-- VarNode{&lt;org.joychou.controller.SSRF: java.lang.String RestTemplateUrlBanRedirects(java.lang.String)&gt;/url} -->
<g id="node1" class="node">
<title>VarNode{&lt;org.joychou.controller.SSRF: java.lang.String RestTemplateUrlBanRedirects(java.lang.String)&gt;/url}</title>
<polygon fill="gold" stroke="black" points="1044.26,-94.54 1044.26,-109.46 785.58,-120 419.76,-120 161.08,-109.46 161.08,-94.54 419.76,-84 785.58,-84 1044.26,-94.54"/>
<polygon fill="none" stroke="black" points="1048.26,-90.7 1048.26,-113.3 785.67,-124 419.68,-124 157.09,-113.3 157.09,-90.7 419.68,-80 785.67,-80 1048.26,-90.7"/>
<text text-anchor="middle" x="602.67" y="-98.3" font-family="Times,serif" font-size="14.00">VarNode{&lt;org.joychou.controller.SSRF: java.lang.String RestTemplateUrlBanRedirects(java.lang.String)&gt;/url}</text>
</g>
<!-- VarNode{&lt;org.joychou.impl.HttpServiceImpl: java.lang.String RequestHttpBanRedirects(java.lang.String,org.springframework.http.HttpHeaders)&gt;/url} -->
<g id="node3" class="node">
<title>VarNode{&lt;org.joychou.impl.HttpServiceImpl: java.lang.String RequestHttpBanRedirects(java.lang.String,org.springframework.http.HttpHeaders)&gt;/url}</title>
<polygon fill="deepskyblue" stroke="black" points="1201.52,-14.54 1201.52,-29.46 850.72,-40 354.62,-40 3.83,-29.46 3.83,-14.54 354.62,-4 850.72,-4 1201.52,-14.54"/>
<polygon fill="none" stroke="black" points="1205.52,-10.66 1205.52,-33.34 850.78,-44 354.56,-44 -0.17,-33.34 -0.17,-10.66 354.56,0 850.78,0 1205.52,-10.66"/>
<text text-anchor="middle" x="602.67" y="-18.3" font-family="Times,serif" font-size="14.00">VarNode{&lt;org.joychou.impl.HttpServiceImpl: java.lang.String RequestHttpBanRedirects(java.lang.String,org.springframework.http.HttpHeaders)&gt;/url}</text>
</g>
<!-- VarNode{&lt;org.joychou.controller.SSRF: java.lang.String RestTemplateUrlBanRedirects(java.lang.String)&gt;/url}&#45;&gt;VarNode{&lt;org.joychou.impl.HttpServiceImpl: java.lang.String RequestHttpBanRedirects(java.lang.String,org.springframework.http.HttpHeaders)&gt;/url} -->
<g id="edge1" class="edge">
<title>VarNode{&lt;org.joychou.controller.SSRF: java.lang.String RestTemplateUrlBanRedirects(java.lang.String)&gt;/url}&#45;&gt;VarNode{&lt;org.joychou.impl.HttpServiceImpl: java.lang.String RequestHttpBanRedirects(java.lang.String,org.springframework.http.HttpHeaders)&gt;/url}</title>
<path fill="none" stroke="blue" d="M602.67,-79.69C602.67,-71.8 602.67,-62.68 602.67,-54.1"/>
<polygon fill="blue" stroke="blue" points="606.17,-54.02 602.67,-44.02 599.17,-54.02 606.17,-54.02"/>
</g>
<!-- VarNode{&lt;org.joychou.controller.SSRF: java.lang.String RestTemplateUrl(java.lang.String)&gt;/url} -->
<g id="node2" class="node">
<title>VarNode{&lt;org.joychou.controller.SSRF: java.lang.String RestTemplateUrl(java.lang.String)&gt;/url}</title>
<polygon fill="gold" stroke="black" points="2166.05,-94.54 2166.05,-109.46 1937.37,-120 1613.97,-120 1385.29,-109.46 1385.29,-94.54 1613.97,-84 1937.37,-84 2166.05,-94.54"/>
<polygon fill="none" stroke="black" points="2170.05,-90.72 2170.05,-113.28 1937.46,-124 1613.88,-124 1381.3,-113.28 1381.3,-90.72 1613.88,-80 1937.46,-80 2170.05,-90.72"/>
<text text-anchor="middle" x="1775.67" y="-98.3" font-family="Times,serif" font-size="14.00">VarNode{&lt;org.joychou.controller.SSRF: java.lang.String RestTemplateUrl(java.lang.String)&gt;/url}</text>
</g>
<!-- VarNode{&lt;org.joychou.impl.HttpServiceImpl: java.lang.String RequestHttp(java.lang.String,org.springframework.http.HttpHeaders)&gt;/url} -->
<g id="node4" class="node">
<title>VarNode{&lt;org.joychou.impl.HttpServiceImpl: java.lang.String RequestHttp(java.lang.String,org.springframework.http.HttpHeaders)&gt;/url}</title>
<polygon fill="deepskyblue" stroke="black" points="2323.71,-14.54 2323.71,-29.46 2002.68,-40 1548.67,-40 1227.63,-29.46 1227.63,-14.54 1548.67,-4 2002.68,-4 2323.71,-14.54"/>
<polygon fill="none" stroke="black" points="2327.71,-10.67 2327.71,-33.33 2002.74,-44 1548.6,-44 1223.63,-33.33 1223.63,-10.67 1548.6,0 2002.74,0 2327.71,-10.67"/>
<text text-anchor="middle" x="1775.67" y="-18.3" font-family="Times,serif" font-size="14.00">VarNode{&lt;org.joychou.impl.HttpServiceImpl: java.lang.String RequestHttp(java.lang.String,org.springframework.http.HttpHeaders)&gt;/url}</text>
</g>
<!-- VarNode{&lt;org.joychou.controller.SSRF: java.lang.String RestTemplateUrl(java.lang.String)&gt;/url}&#45;&gt;VarNode{&lt;org.joychou.impl.HttpServiceImpl: java.lang.String RequestHttp(java.lang.String,org.springframework.http.HttpHeaders)&gt;/url} -->
<g id="edge2" class="edge">
<title>VarNode{&lt;org.joychou.controller.SSRF: java.lang.String RestTemplateUrl(java.lang.String)&gt;/url}&#45;&gt;VarNode{&lt;org.joychou.impl.HttpServiceImpl: java.lang.String RequestHttp(java.lang.String,org.springframework.http.HttpHeaders)&gt;/url}</title>
<path fill="none" stroke="blue" d="M1775.67,-79.69C1775.67,-71.8 1775.67,-62.68 1775.67,-54.1"/>
<polygon fill="blue" stroke="blue" points="1779.17,-54.02 1775.67,-44.02 1772.17,-54.02 1779.17,-54.02"/>
</g>
</g>
</svg>
